<?xml version="1.0" encoding="UTF-8"?>
<svg id="Calque_1" data-name="Calque 1" xmlns="http://www.w3.org/2000/svg" viewBox="0 0 297.03 56.74">
  <defs>
    <style>
      .cls-1 {
        fill: #121212;
        stroke-width: 0px;
      }
    </style>
  </defs>
  <path class="cls-1" d="M61.82,8.35H18.9c-1.56,0-2.91-1.12-3.14-2.66-.28-1.93,1.22-3.59,3.09-3.59h43.02c1.83.01,3.28,1.58,3.1,3.45-.16,1.6-1.54,2.8-3.15,2.8ZM61.88,17.52H18.9c-1.56,0-2.91,1.12-3.14,2.66-.28,1.93,1.22,3.59,3.09,3.59h43.02c1.72,0,3.13-1.4,3.13-3.13-.01-1.72-1.4-3.13-3.13-3.13ZM61.88,32.95H18.9c-1.56,0-2.91,1.12-3.14,2.66-.28,1.93,1.22,3.59,3.09,3.59h43.02c1.72,0,3.13-1.4,3.13-3.13-.01-1.72-1.4-3.13-3.13-3.13ZM61.88,48.46H18.9c-1.56,0-2.91,1.12-3.14,2.66-.28,1.93,1.22,3.59,3.09,3.59h43.02c1.72,0,3.13-1.4,3.13-3.13-.01-1.72-1.4-3.13-3.13-3.13ZM5.18,0C2.32,0,0,2.32,0,5.18s2.32,5.2,5.18,5.2,5.18-2.33,5.18-5.2S8.05,0,5.18,0ZM5.18,15.46c-2.87,0-5.18,2.32-5.18,5.18s2.32,5.18,5.18,5.18,5.18-2.32,5.18-5.18-2.32-5.18-5.18-5.18ZM5.18,30.92c-2.87,0-5.18,2.32-5.18,5.18s2.32,5.18,5.18,5.18,5.18-2.32,5.18-5.18-2.32-5.18-5.18-5.18ZM5.18,46.37c-2.87,0-5.18,2.32-5.18,5.18s2.32,5.18,5.18,5.18,5.18-2.32,5.18-5.18-2.32-5.18-5.18-5.18Z"/>
  <g>
    <path class="cls-1" d="M78.85,8.07h5.37v35.26h10.08l-.5,4.82h-14.95V8.07Z"/>
    <path class="cls-1" d="M105.51,36.55l-1.62,11.59h-5.46l6.51-40.08h7.61l6.77,40.08h-5.62l-1.78-11.59h-6.41ZM111.26,31.61c-1.12-7.66-2.05-14.27-2.48-18.49h-.2c-.16,3.22-1.46,11.98-2.38,18.49h5.06Z"/>
    <path class="cls-1" d="M127.08,48.15v-14.52c0-.49-.06-.77-.2-1.24l-7.43-24.32h5.93c1.77,6.82,3.84,14.78,4.48,18.86h.06c.8-4.37,2.87-12.24,4.5-18.86h5.71l-7.55,24.74c-.06.28-.12.65-.12,1.39v13.95h-5.37Z"/>
    <path class="cls-1" d="M143.33,44.59l11.51-31.53h-10.5v-4.98h16.43v4.17l-11.21,30.97h11.49l-.7,4.94h-17.01v-3.56Z"/>
    <path class="cls-1" d="M171.63,13.05h-6.46v-4.98h18.29v4.98h-6.46v35.09h-5.38V13.05Z"/>
    <path class="cls-1" d="M191.37,36.55l-1.62,11.59h-5.46l6.51-40.08h7.61l6.77,40.08h-5.62l-1.78-11.59h-6.41ZM197.12,31.61c-1.12-7.66-2.05-14.27-2.48-18.49h-.2c-.16,3.22-1.46,11.98-2.38,18.49h5.06Z"/>
    <path class="cls-1" d="M215.47,36.56v2.41c0,3.32,1.07,5.13,3.61,5.13s3.44-2.2,3.44-5.55c0-4.47-.97-6.01-5.24-9.36-4.3-3.38-6.55-5.5-6.55-11.42,0-5.2,1.57-10.33,8.4-10.32,6.8.02,8.12,4.74,8.12,9.4v2.02h-5.33v-1.88c0-3.02-.55-4.9-2.89-4.9s-2.93,2.03-2.93,4.89c0,3.21.62,4.61,4.21,7.27,5.81,4.34,7.62,6.82,7.62,13.5,0,5.66-1.83,10.94-9.01,10.94s-8.83-4.52-8.83-9.8v-2.35h5.38Z"/>
    <path class="cls-1" d="M234.36,8.07h5.29v18.62h.06c1.59-3.88,5.4-12.93,7.77-18.62h5.96l-7.45,15.71,7.99,24.37h-5.85l-5.79-18.75-2.68,5.48v13.26h-5.29V8.07Z"/>
    <path class="cls-1" d="M272.88,29.38h-8.89v13.83h10.18l-.7,4.94h-14.85V8.07h14.76v4.98h-9.38v11.38h8.89v4.94Z"/>
    <path class="cls-1" d="M285.1,29.89v18.25h-5.37V8.07h7.91c6.07,0,9.4,2.51,9.4,9.47v1.65c0,5.86-2.27,7.7-4.08,8.39,2.42,1.03,3.7,2.81,3.7,8.22,0,3.4-.06,9.86.38,12.33h-5.21c-.52-2.45-.42-9.1-.42-11.97,0-5.02-.67-6.29-4.42-6.29h-1.88ZM285.1,25.41h1.92c3.5,0,4.61-1.64,4.61-5.97v-1.55c0-3.33-.79-5.35-4.51-5.35h-2.03v12.86Z"/>
  </g>
</svg>